<?xml version="1.0" encoding="UTF-8"?>
<svg xmlns="http://www.w3.org/2000/svg" xmlns:xlink="http://www.w3.org/1999/xlink" width="484.23" height="325.67" viewBox="1634.72 3099.33 484.23 325.67">
<defs>
    <linearGradient id="linear-gradient" x1="1251.13" y1="3322" x2="1251.13" y2="4720.5" gradientUnits="userSpaceOnUse">
      <stop offset="0" stop-color="#006837"></stop>
      <stop offset="1" stop-color="#39b54a"></stop>
    </linearGradient>
    <clipPath id="clippath">
      <rect x="292.38" y="2679.44" width="1920" height="724.8" fill="none"></rect>
    </clipPath>
    <linearGradient id="linear-gradient-2" x1="1251.03" y1="2234.4" x2="1251.03" y2="2887.2" gradientUnits="userSpaceOnUse">
      <stop offset="0" stop-color="#fec35f"></stop>
      <stop offset=".31" stop-color="#fdf6e4"></stop>
      <stop offset=".91" stop-color="#fde5c1"></stop>
      <stop offset="1" stop-color="#fde5c1" stop-opacity="0"></stop>
    </linearGradient>
    <linearGradient id="linear-gradient-3" x1="288.9" y1="1032.4" x2="2213.23" y2="1032.4" gradientUnits="userSpaceOnUse">
      <stop offset="0" stop-color="#004ca2"></stop>
      <stop offset="1" stop-color="#045dc3"></stop>
    </linearGradient>
    <clipPath id="clippath-1">
      <rect x="290.43" y="1920.8" width="1922.47" height="452.8" fill="none"></rect>
    </clipPath>
    <linearGradient id="linear-gradient-4" x1="159.22" y1="2300.75" x2="2377.32" y2="2300.75" gradientUnits="userSpaceOnUse">
      <stop offset="0" stop-color="#dce3ff"></stop>
      <stop offset="1" stop-color="#fff"></stop>
    </linearGradient>
    <linearGradient id="linear-gradient-5" x1="139.42" y1="2280.04" x2="2357.52" y2="2280.04" gradientUnits="userSpaceOnUse">
      <stop offset="0" stop-color="#9fe3ff"></stop>
      <stop offset="1" stop-color="#0c7dca"></stop>
    </linearGradient>
    <linearGradient id="linear-gradient-6" x1="47.53" y1="2205.61" x2="2232.88" y2="2205.61" gradientTransform="translate(2292.8166) scale(-1.0109 1)" gradientUnits="userSpaceOnUse">
      <stop offset="0" stop-color="#056fe8"></stop>
      <stop offset="1" stop-color="#00d4ff"></stop>
    </linearGradient>
    <linearGradient id="linear-gradient-7" x1="240.09" y1="2141.42" x2="2378.3" y2="2141.42" gradientUnits="userSpaceOnUse">
      <stop offset="0" stop-color="#0094f6"></stop>
      <stop offset="1" stop-color="#007be8"></stop>
    </linearGradient>
    <linearGradient id="linear-gradient-8" x1="160.19" y1="2058.26" x2="2346.34" y2="2058.26" gradientTransform="translate(2541.0357) scale(-1.0275 1)" gradientUnits="userSpaceOnUse">
      <stop offset="0" stop-color="#0066e2"></stop>
      <stop offset="1" stop-color="#0561ca"></stop>
    </linearGradient>
    <linearGradient id="linear-gradient-9" x1="43.53" y1="2004.66" x2="2463" y2="2004.66" gradientUnits="userSpaceOnUse">
      <stop offset="0" stop-color="#004ba0"></stop>
      <stop offset="1" stop-color="#0561ca"></stop>
    </linearGradient>
    <clipPath id="clippath-2">
      <rect x="290.94" y="3251.84" width="1925.09" height="891.6" fill="none"></rect>
    </clipPath>
    <clipPath id="clippath-3">
      <rect x="289.63" y="4231" width="628.8" height="385.2" fill="none"></rect>
    </clipPath>
    <clipPath id="clippath-4">
      <rect x="292.43" y="4282" width="1922.4" height="583.2" fill="none"></rect>
    </clipPath>
    <clipPath id="clippath-5">
      <rect x="290.63" y="2855" width="777.6" height="271.2" fill="none"></rect>
    </clipPath>
    <clipPath id="clippath-6">
      <rect x="1013.93" y="4571.11" width="132.8" height="155.2" fill="none"></rect>
    </clipPath>
    <linearGradient id="linear-gradient-10" x1="1892.28" y1="259.56" x2="1892.28" y2="272.32" gradientTransform="translate(-4.16 102.12)" gradientUnits="userSpaceOnUse">
      <stop offset=".37" stop-color="#fff"></stop>
      <stop offset="1" stop-color="gray"></stop>
    </linearGradient>
    <linearGradient id="linear-gradient-11" x1="2140.97" y1="256.84" x2="2140.97" y2="244.08" gradientTransform="translate(-251.43 117.6)" xlink:href="#linear-gradient-10"></linearGradient>
    <linearGradient id="linear-gradient-12" x1="1983.82" y1="351.1" x2="1983.82" y2="363.86" gradientTransform="translate(33.75 10.58)" xlink:href="#linear-gradient-10"></linearGradient>
    <linearGradient id="linear-gradient-13" x1="2049.43" y1="348.38" x2="2049.43" y2="335.62" gradientTransform="translate(-30.43 26.06)" xlink:href="#linear-gradient-10"></linearGradient>
    <linearGradient id="linear-gradient-14" x1="2073.2" y1="440.48" x2="2073.2" y2="453.24" gradientTransform="translate(70.78 -78.8)" xlink:href="#linear-gradient-10"></linearGradient>
    <linearGradient id="linear-gradient-15" x1="1960.05" y1="437.76" x2="1960.05" y2="425" gradientTransform="translate(185.35 -63.32)" xlink:href="#linear-gradient-10"></linearGradient>
    <linearGradient id="linear-gradient-16" x1="1801.75" y1="169.03" x2="1801.75" y2="181.79" gradientTransform="translate(-41.66 192.65)" xlink:href="#linear-gradient-10"></linearGradient>
    <linearGradient id="linear-gradient-17" x1="2231.5" y1="166.31" x2="2231.5" y2="153.55" gradientTransform="translate(-469.99 208.13)" xlink:href="#linear-gradient-10"></linearGradient>
    <linearGradient id="linear-gradient-18" x1="897.92" y1="-734.79" x2="897.92" y2="-722.04" gradientTransform="translate(-416.0391 1096.4794)" xlink:href="#linear-gradient-10"></linearGradient>
    <linearGradient id="linear-gradient-19" x1="3135.33" y1="-737.52" x2="3135.33" y2="-750.27" gradientTransform="translate(-2652.0225 1111.9602)" xlink:href="#linear-gradient-10"></linearGradient>
    <linearGradient id="linear-gradient-20" x1="983.42" y1="-649.29" x2="983.42" y2="-636.53" gradientTransform="translate(-380.6224 1010.9761)" xlink:href="#linear-gradient-10"></linearGradient>
    <linearGradient id="linear-gradient-21" x1="3049.82" y1="-652.01" x2="3049.82" y2="-664.77" gradientTransform="translate(-2445.5992 1026.4569)" xlink:href="#linear-gradient-10"></linearGradient>
    <linearGradient id="linear-gradient-22" x1="810.32" y1="-822.39" x2="810.32" y2="-809.63" gradientTransform="translate(-452.3227 1184.0758)" xlink:href="#linear-gradient-10"></linearGradient>
    <linearGradient id="linear-gradient-23" x1="3222.92" y1="-825.11" x2="3222.92" y2="-837.87" gradientTransform="translate(-2863.4989 1199.5566)" xlink:href="#linear-gradient-10"></linearGradient>
    <linearGradient id="linear-gradient-24" x1="1074.96" y1="-557.75" x2="1074.96" y2="-544.99" gradientTransform="translate(-342.71 919.44)" xlink:href="#linear-gradient-10"></linearGradient>
    <linearGradient id="linear-gradient-25" x1="2958.29" y1="-560.47" x2="2958.29" y2="-573.23" gradientTransform="translate(-2224.6049 934.918)" xlink:href="#linear-gradient-10"></linearGradient>
    <linearGradient id="linear-gradient-26" x1="1252.39" y1="277.04" x2="1252.39" y2="310.11" gradientTransform="matrix(1,0,0,1,0,0)" xlink:href="#linear-gradient-10"></linearGradient>
    <linearGradient id="linear-gradient-27" x1="1252.39" y1="423.56" x2="1252.39" y2="456.64" gradientTransform="matrix(1,0,0,1,0,0)" xlink:href="#linear-gradient-10"></linearGradient>
    <linearGradient id="linear-gradient-28" x1="-486.43" y1="2880.39" x2="-486.43" y2="2893.14" gradientTransform="translate(2545.7452 1016.4996)" xlink:href="#linear-gradient-10"></linearGradient>
    <linearGradient id="linear-gradient-29" x1="-479.85" y1="-2121.86" x2="-479.85" y2="-2134.62" gradientTransform="translate(2540.5935 6031.5082)" xlink:href="#linear-gradient-10"></linearGradient>
    <linearGradient id="linear-gradient-30" x1="-394.89" y1="2971.92" x2="-394.89" y2="2984.68" gradientTransform="translate(2583.6618 924.9608)" xlink:href="#linear-gradient-10"></linearGradient>
    <linearGradient id="linear-gradient-31" x1="-571.39" y1="-2030.33" x2="-571.39" y2="-2043.08" gradientTransform="translate(2761.5878 5939.9694)" xlink:href="#linear-gradient-10"></linearGradient>
    <linearGradient id="linear-gradient-32" x1="-576.96" y1="2789.85" x2="-576.96" y2="2802.61" gradientTransform="translate(2508.2452 1107.0326)" xlink:href="#linear-gradient-10"></linearGradient>
    <linearGradient id="linear-gradient-33" x1="-389.32" y1="-2212.4" x2="-389.32" y2="-2225.16" gradientTransform="translate(2322.0276 6122.0412)" xlink:href="#linear-gradient-10"></linearGradient>
    <linearGradient id="linear-gradient-34" x1="1921.72" y1="3811.96" x2="1921.72" y2="3845.04" gradientTransform="translate(1353.2792 .8486) scale(.3438 1)" xlink:href="#linear-gradient-10"></linearGradient>
    <linearGradient id="linear-gradient-35" x1="1921.72" y1="3958.49" x2="1921.72" y2="3991.56" gradientTransform="translate(1353.0379 .8484) scale(.3438 1)" xlink:href="#linear-gradient-10"></linearGradient>
  </defs>
<g id="Cloud1" data-h="" style="">
        <path d="M1801.79,3378.26c18.68,1.6,36.24-4.37,49.73-15.32,5.05-2.94,9.71-6.5,13.87-10.6,15.77,15.83,36.89,26.5,60.91,28.56,25.79,2.21,50.08-5.79,68.94-20.62,11.99-7.46,22.36-17.36,30.19-29.21,7.62,5.65,16.81,9.35,26.96,10.23,14.75,1.27,28.6-3.62,39.04-12.52,15-8.29,25.75-23.66,27.32-42.02,2.51-29.28-19.18-55.03-48.45-57.55-1.69-.15-3.36-.2-5.04-.18,5.95-10.54,9.87-22.44,10.97-35.27,4.11-47.87-31.36-90-79.23-94.11-22.75-1.95-44.14,5.11-60.82,18.11-16.63,9.97-29.7,25.44-36.7,44.09-6.54-3.62-13.92-5.99-21.86-6.67-15.21-1.31-29.49,3.7-40.29,12.84-15.46,8.61-26.5,24.5-28.13,43.45-.66,7.68.34,15.11,2.63,21.98-14.7.99-28.3,6.56-39.22,15.46-7.19,4.24-13.59,9.73-18.86,16.22-3.48-1.14-7.13-1.95-10.93-2.27-13.55-1.16-26.24,3.42-35.74,11.69-13.83,7.45-23.76,21.48-25.21,38.3-2.28,26.52,17.37,49.85,43.89,52.13,11.58.99,22.56-2.2,31.44-8.32,11.33,11.99,26.87,20.1,44.62,21.62Z" fill="#666" fill-rule="evenodd" mix-blend-mode="multiply"></path>
        <g data-h="" style="">
          <path d="M1754.86,3421.98c24.87,2.14,47.75-9.14,61.68-27.76,15.95,16.88,37.85,28.27,62.82,30.41,40.78,3.5,77.83-18.48,95.54-52.7,8.25,7.26,18.76,12.08,30.54,13.1,29.27,2.51,55.03-19.18,57.54-48.44,2.51-29.28-19.18-55.04-48.45-57.55-1.7-.15-3.37-.19-5.04-.17,5.96-10.53,9.87-22.44,10.97-35.28,4.11-47.87-31.36-90-79.23-94.11-43.27-3.72-81.76,24.96-91.81,65.86-7.84-5.69-17.23-9.43-27.58-10.32-30.32-2.6-57,19.86-59.61,50.18-.86,10.04,1.08,19.67,5.1,28.18-.19-.02-.39-.06-.58-.08-27.12-2.33-51.87,11.26-65.23,32.95-4.51-1.88-9.36-3.13-14.49-3.57-26.52-2.28-49.86,17.37-52.13,43.89-2.28,26.52,17.37,49.85,43.89,52.13,11.59,1,22.57-2.2,31.45-8.32,11.32,12,26.87,20.1,44.61,21.62Z" fill="#94bdd7" fill-rule="evenodd"></path>
          <path d="M1763.67,3415.88c-38.3-3.29-66.69-37-63.4-75.31,3.29-38.3,37-66.68,75.31-63.39,38.29,3.29,66.68,37,63.39,75.3-3.29,38.31-37,66.69-75.3,63.4Z" fill="#c4e8ff" fill-rule="evenodd"></path>
          <path d="M1935.17,3316.71c-47.87-4.11-83.34-46.24-79.23-94.11,4.11-47.87,46.24-83.34,94.11-79.23,47.86,4.11,83.34,46.24,79.23,94.11-4.11,47.87-46.24,83.34-94.11,79.23Z" fill="#c4e8ff" fill-rule="evenodd"></path>
          <path d="M1888.17,3418.52c-53.99-4.64-94.01-52.16-89.37-106.15,4.63-53.99,52.17-94,106.16-89.36,53.99,4.63,94,52.16,89.36,106.15-4.64,53.99-52.16,94-106.15,89.37Z" fill="#c4e8ff" fill-rule="evenodd"></path>
          <path d="M1830.67,3198.9c-30.32-2.6-57,19.86-59.6,50.18-2.6,30.32,19.86,56.99,50.18,59.6,30.31,2.6,57-19.86,59.61-50.17,2.6-30.32-19.87-57-50.18-59.61Z" fill="#c4e8ff" fill-rule="evenodd"></path>
          <path d="M2023.35,3272.93c29.27,2.51,50.96,28.27,48.45,57.54-2.51,29.27-28.28,50.96-57.55,48.44-29.26-2.51-50.95-28.28-48.44-57.54,2.51-29.27,28.27-50.96,57.54-48.44Z" fill="#c4e8ff" fill-rule="evenodd"></path>
          <path d="M1687.61,3402.57c-26.52-2.28-46.17-25.62-43.89-52.13,2.28-26.52,25.62-46.17,52.13-43.89,26.51,2.28,46.16,25.62,43.88,52.14-2.28,26.51-25.62,46.16-52.13,43.88Z" fill="#c4e8ff" fill-rule="evenodd"></path>
          <path d="M1720.34,3337.35c2.59-30.11,29.19-52.51,59.31-49.93,30.12,2.59,52.51,29.2,49.93,59.31-2.59,30.12-29.19,52.51-59.31,49.93-30.12-2.59-52.51-29.19-49.93-59.3Z" fill="#d7f0fa" fill-rule="evenodd"></path>
          <path d="M1876.02,3219.37c3.4-39.66,38.44-69.16,78.11-65.76,39.66,3.4,69.16,38.45,65.76,78.11-3.41,39.67-38.45,69.16-78.11,65.76-39.67-3.41-69.17-38.44-65.76-78.11Z" fill="#d7f0fa" fill-rule="evenodd"></path>
          <path d="M1818.88,3309.14c3.93-45.77,44.37-79.83,90.15-75.89,45.78,3.93,79.82,44.38,75.89,90.15-3.93,45.79-44.37,79.83-90.15,75.9-45.78-3.93-79.83-44.37-75.89-90.15Z" fill="#d7f0fa" fill-rule="evenodd"></path>
          <path d="M1791.13,3245.85c1.9-22.14,21.46-38.61,43.6-36.71,22.14,1.9,38.61,21.46,36.71,43.61-1.9,22.14-21.46,38.61-43.61,36.71-22.14-1.9-38.61-21.46-36.71-43.6Z" fill="#d7f0fa" fill-rule="evenodd"></path>
          <path d="M1980.72,3320.62c1.81-21.1,20.44-36.79,41.54-34.98,21.1,1.81,36.79,20.45,34.97,41.54-1.81,21.1-20.44,36.79-41.54,34.97-21.1-1.81-36.79-20.44-34.98-41.54Z" fill="#d7f0fa" fill-rule="evenodd"></path>
          <path d="M1663.79,3347.22c1.58-18.35,17.79-31.99,36.13-30.42,18.35,1.58,31.99,17.79,30.42,36.13-1.58,18.35-17.79,32-36.13,30.42-18.35-1.58-31.99-17.79-30.42-36.13Z" fill="#d7f0fa" fill-rule="evenodd"></path>
          <path d="M1740.41,3334.12c1.89-21.99,21.32-38.35,43.31-36.47,21.99,1.89,38.34,21.33,36.46,43.31-1.89,21.99-21.32,38.35-43.31,36.46-21.99-1.89-38.35-21.32-36.46-43.31Z" fill="#ebf9ff" fill-rule="evenodd"></path>
          <path d="M1896.08,3216.14c2.71-31.54,30.58-54.99,62.12-52.29,31.54,2.71,55,30.57,52.29,62.11-2.71,31.54-30.57,55.01-62.12,52.3-31.54-2.71-55-30.58-52.29-62.12Z" fill="#ebf9ff" fill-rule="evenodd"></path>
          <path d="M1838.94,3305.92c3.23-37.65,36.5-65.66,74.15-62.43,37.66,3.23,65.66,36.5,62.43,74.15-3.23,37.66-36.5,65.66-74.15,62.43-37.65-3.23-65.66-36.49-62.43-74.15Z" fill="#ebf9ff" fill-rule="evenodd"></path>
          <path d="M1800.38,3260.49c2-23.25,22.53-40.53,45.78-38.54,23.24,2,40.53,22.52,38.53,45.78-2,23.24-22.53,40.53-45.77,38.54-23.24-2-40.53-22.53-38.54-45.77Z" fill="#ebf9ff" fill-rule="evenodd"></path>
          <path d="M1782.73,3306.96c2-23.24,22.53-40.52,45.77-38.53,23.24,2,40.53,22.52,38.53,45.77-2,23.25-22.53,40.53-45.77,38.53-23.24-2-40.53-22.52-38.53-45.77Z" fill="#ebf9ff" fill-rule="evenodd"></path>
          <path d="M1920.64,3297.66c2-23.25,22.53-40.53,45.77-38.54,23.25,2,40.53,22.53,38.53,45.77-2,23.24-22.52,40.52-45.77,38.53-23.24-2-40.53-22.53-38.53-45.77Z" fill="#ebf9ff" fill-rule="evenodd"></path>
          <path d="M1970.18,3320.68c1.71-19.88,19.27-34.67,39.15-32.96,19.88,1.71,34.67,19.27,32.96,39.15-1.71,19.88-19.27,34.67-39.15,32.96-19.88-1.71-34.67-19.27-32.96-39.15Z" fill="#ebf9ff" fill-rule="evenodd"></path>
          <path d="M1683.86,3344c.88-10.23,9.91-17.83,20.14-16.95,10.21.88,17.82,9.91,16.94,20.14-.88,10.22-9.91,17.82-20.13,16.95-10.23-.88-17.83-9.91-16.95-20.13Z" fill="#ebf9ff" fill-rule="evenodd"></path>
          <path d="M1755.14,3335.39c1.19-13.87,13.44-24.19,27.31-23,13.87,1.19,24.18,13.45,22.99,27.31-1.19,13.86-13.44,24.18-27.31,22.99-13.87-1.19-24.18-13.45-22.99-27.31Z" fill="#fff" fill-rule="evenodd"></path>
          <path d="M1910.82,3217.41c2.01-23.42,22.69-40.83,46.11-38.82,23.42,2.01,40.83,22.69,38.82,46.11-2.01,23.42-22.69,40.84-46.11,38.82-23.42-2.01-40.83-22.69-38.82-46.12Z" fill="#fff" fill-rule="evenodd"></path>
          <path d="M1853.67,3307.18c2.54-29.53,28.63-51.5,58.16-48.96,29.53,2.54,51.49,28.63,48.96,58.16-2.54,29.53-28.62,51.49-58.15,48.96-29.54-2.54-51.5-28.62-48.97-58.15Z" fill="#fff" fill-rule="evenodd"></path>
          <path d="M1815.12,3261.75c1.3-15.12,14.66-26.37,29.78-25.07,15.11,1.3,26.36,14.66,25.06,29.78-1.3,15.12-14.66,26.36-29.77,25.06-15.12-1.3-26.37-14.65-25.07-29.77Z" fill="#fff" fill-rule="evenodd"></path>
          <path d="M1797.46,3308.23c1.3-15.11,14.66-26.36,29.77-25.06,15.12,1.3,26.36,14.65,25.06,29.77-1.3,15.12-14.65,26.36-29.77,25.07-15.12-1.3-26.36-14.65-25.07-29.77Z" fill="#fff" fill-rule="evenodd"></path>
          <path d="M1935.38,3298.92c1.3-15.12,14.66-26.36,29.77-25.07,15.12,1.3,26.36,14.65,25.07,29.77-1.3,15.12-14.65,26.36-29.77,25.06-15.11-1.3-26.36-14.65-25.06-29.77Z" fill="#fff" fill-rule="evenodd"></path>
          <path d="M1984.92,3321.94c1.01-11.76,11.39-20.5,23.15-19.49,11.76,1.01,20.51,11.39,19.5,23.15s-11.4,20.5-23.16,19.49c-11.76-1.01-20.5-11.39-19.49-23.15Z" fill="#fff" fill-rule="evenodd"></path>
          <path d="M1698.6,3345.26c.18-2.1,2.03-3.66,4.13-3.48s3.66,2.04,3.48,4.14-2.04,3.65-4.13,3.47-3.66-2.04-3.48-4.13Z" fill="#fff" fill-rule="evenodd"></path>
        </g>
      </g>
</svg>
