<svg xmlns="http://www.w3.org/2000/svg" width="3" height="1519.6" viewBox="1758.8 6023.5 3 1519.6"><defs><linearGradient id="linear-gradient-160" x1="1038.36" x2="1038.36" y1="5026.86" y2="6999.11" gradientUnits="userSpaceOnUse"><stop offset="0"/><stop offset=".03" stop-color="#020203"/><stop offset=".28" stop-color="#141521"/><stop offset=".52" stop-color="#202336"/><stop offset=".76" stop-color="#282c42"/><stop offset=".99" stop-color="#2b2f47"/></linearGradient><clipPath id="clippath"><path fill="none" d="M317.25 6941.22h1442.51v1969.49H317.25z"/></clipPath></defs><g id="Layer_2" data-name="Layer 2"><g id="Layer_1-2" data-name="Layer 1"><g clip-path="url(#clippath)"><path fill="#ffd486" d="M1698.64 6936.52h547.17v1115h-547.17z"/><path fill="#ffdb96" d="M2259.98 7324.97c-168.76 28.75-404.9-22.74-574.09-37.67l8.61-61.24c166.9 50.27 401.49 104.93 569.05 39.48z"/><path fill="#ffdb96" d="M2263.55 7442.79c-76-19.93-288.44-18.18-367.84-17-23.54 10.91-69.34 39.61-91.44 57.42l-27.18-21.16c-25.91-1.24-62.53 14.34-87.61 25.21l-5.74 103.73c142.08-1.48 295.75-141.81 438.74-110.81 30.78 20.93 99.17 58.99 131.77 65.48z"/><path fill="#fac67e" d="M2258.21 7056.18v83.61c-41.21 8.85-132.15 46.99-172.89 66.49-122.12 11.32-280.93-12.16-395.04-92.67l-5.26-62.47s24.4 16.29 30.28 18.69l197.69 55.85c56.91-8.56 185.63-21.69 241.51-12.08l39.59-9.07z"/></g><path fill="none" d="M1759.23 7120.73v748h-498.68v-748z"/><path fill="#534d45" d="M1260.56 7422.27v-97.97h498.68v97.97z"/><g fill="#fff"><path d="M1260.56 7417.61h498.68v1.5h-498.68z"/><path d="M1260.56 7327.56h498.68v1.5h-498.68z"/></g><path fill="url(#linear-gradient-160)" d="M312.96 5026.86h1450.8v1972.25H312.96z"/><g id="dESERET"><path fill="#dcb09e" d="m1615.57 7031.9 113.96 40.04 112.01-14.91 60.52-72.62-71.13-45.91-188.09 63.19z"/><path fill="#876b5f" d="m1830.17 6913.95-41.66 17.79-35.68 22.56-38.09 8.21-75.88 33.13 3.98 6.05 188.09-63.19z"/><path fill="#c89f8c" d="m1729.13 7081.25 129.62-13.71-17.21-10.51-112.01 14.91z"/><path fill="#ecbdaa" d="m1731.55 7071.67 108.47-11.37 15.4 5.2-11.05-8.63 11.75-17.25-15.09 15.95z"/><path fill="#cfa694" d="m1635.62 7032.06 90.67 24.85 112.31-13.52z"/><path fill="#cfa694" d="m1645.29 7025.49 145.46-9.71 76.21-26.67-28.47-20.88z"/></g></g></g></svg>